PathFileType	4	(X/Y/Z)	D:\TRACE\v60_Jaco2_6-2-23\BothDRS_Motion1_3-platform.trc
DataRate	CameraRate	NumFrames	NumMarkers	Units	OrigDataRate	OrigDataStartFrame	OrigNumFrames
100.00	100.00	      43	5	mm	100.00	885	      7073
Frame#	Time	Left_Front			Right_Front			Left_Aft			Right_Aft			Post			
		X1	Y1	Z1	X2	Y2	Z2	X3	Y3	Z3	X4	Y4	Z4	X5	Y5	Z5	

885	8.840	-786.88739	16.70650	-637.47473	783.20209	18.04942	-642.13251	-694.98615	2.49806	498.12750	746.58514	0.52237	506.78165	-0.48678	1319.12280	-945.01984	
886	8.850	-786.04755	16.29967	-637.30933	784.04071	17.53177	-642.11359	-694.10919	2.60712	497.98917	746.74084	0.19504	506.17770	0.51410	1318.62476	-945.77728	
887	8.860	-785.11591	16.14761	-637.43872	785.05731	17.21937	-642.15704	-693.17053	2.88490	497.77719	748.56250	1.55538	507.05457	1.33863	1318.09937	-946.78235	
888	8.870	-784.11627	15.38376	-637.37311	785.94421	16.87052	-642.52271	-692.34680	3.23350	497.67316	749.42358	1.78755	506.99283	1.83781	1317.62305	-947.56995	
889	8.880	-783.14514	14.80485	-637.80426	787.08386	16.30085	-642.30511	-691.47559	3.41287	497.57196	750.45111	2.18365	506.95905	3.16572	1317.14832	-948.47839	
890	8.890	-782.37958	14.65068	-637.65436	787.83282	16.05021	-642.33411	-690.44788	3.58435	497.51694	751.38922	2.35470	506.89047	4.09665	1316.65210	-949.14185	
891	8.900	-781.34796	14.24289	-637.50525	788.80054	15.67428	-642.73230	-689.47424	3.90182	497.46216	752.17365	2.73756	506.96298	4.95909	1316.01587	-950.12335	
892	8.910	-780.17700	13.77193	-637.90100	789.73224	15.33965	-642.84406	-688.45825	4.13454	497.32724	753.42029	2.94573	506.72763	5.88077	1315.37585	-951.30579	
893	8.920	-779.53693	13.63266	-638.11914	790.86462	15.08735	-642.41089	-687.37762	4.32359	497.22067	754.45245	3.28193	506.82678	6.88662	1314.80957	-951.92792	
894	8.930	-778.62054	13.15691	-638.11096	791.59119	14.64692	-642.88171	-686.63373	4.54425	497.04611	755.03186	3.62683	506.81567	7.75905	1314.41638	-952.77924	
895	8.940	-777.63800	12.80097	-638.06274	792.63177	14.45002	-642.94586	-685.88605	4.82618	497.00806	756.20905	3.88985	506.69781	8.51317	1314.04285	-953.16858	
896	8.950	-776.62463	12.33829	-638.32379	793.55884	13.98200	-643.11053	-684.94830	5.03921	496.88571	757.30676	4.27388	506.71124	9.79850	1313.29358	-954.03754	
897	8.960	-775.98566	12.03911	-638.55090	794.33441	13.55972	-643.22247	-683.97937	5.33587	496.82996	758.15253	4.46590	506.54251	10.22712	1312.60693	-954.50470	
898	8.970	-775.15967	11.94833	-638.60645	795.06653	13.16413	-643.26117	-683.04211	5.63773	496.74002	759.47443	4.83986	506.38132	11.38783	1312.21045	-955.64624	
899	8.980	-773.88416	11.47669	-638.62762	796.06531	12.72685	-643.39142	-682.12512	5.75947	496.47977	760.16479	5.09149	506.41571	11.93390	1311.80786	-956.29706	
900	8.990	-772.85638	10.77724	-638.46686	797.10162	12.46750	-643.38861	-681.31000	6.04445	496.42957	760.63391	5.31588	506.52499	12.95198	1311.15735	-957.19037	
901	9.000	-772.38208	10.43899	-638.76642	797.64331	11.90953	-643.73816	-680.48395	6.29647	496.41119	761.71869	5.57872	505.88193	13.84031	1310.51233	-958.21393	
902	9.010	-771.53461	10.06726	-638.75708	798.66833	11.49106	-643.57898	-679.55853	6.46990	496.34528	762.61407	5.95639	506.13657	14.94295	1309.94128	-959.02850	
903	9.020	-770.39612	9.69711	-639.03021	799.56311	11.34096	-643.68604	-678.60901	6.92022	496.36362	763.24316	6.44491	506.18927	15.60678	1309.41785	-960.22528	
904	9.030	-769.71570	9.54244	-638.98462	800.27032	11.04372	-643.86444	-677.85315	7.14605	496.24832	764.63184	6.67474	505.90546	16.15713	1308.87976	-961.21814	
905	9.040	-768.96606	9.03100	-639.12604	801.11169	10.49052	-644.05377	-676.99121	7.29302	496.00851	765.10004	6.66859	505.83087	17.36441	1308.36340	-962.02325	
906	9.050	-768.35101	8.67546	-639.17896	802.08344	10.16918	-644.18207	-676.19910	7.53956	495.88367	765.77130	6.99100	505.76501	17.97354	1308.07153	-962.82471	
907	9.060	-767.25684	8.21121	-639.34509	802.69733	9.80468	-644.40118	-675.52637	7.79703	495.83255	766.89679	7.30293	505.72034	18.64378	1307.40271	-963.41443	
908	9.070	-766.40204	7.83325	-639.36566	803.27197	9.39715	-644.47986	-674.73944	7.99729	495.78580	767.89703	7.72298	505.60217	19.73619	1306.66650	-963.91040	
909	9.080	-765.80725	7.67267	-639.49115	804.18036	8.97975	-644.54144	-673.56152	8.41078	495.81592	768.32233	7.85099	505.60574	20.36953	1306.10522	-964.74255	
910	9.090	-765.07666	7.21182	-639.62225	805.03644	8.80763	-644.75311	-673.12616	8.53413	495.73755	769.15686	8.14440	505.46246	21.02559	1305.52979	-965.53662	
911	9.100	-764.22650	6.78059	-639.72565	805.89319	8.43882	-644.72876	-672.23853	8.75100	495.63449	769.95319	8.50270	505.37421	21.59964	1305.24158	-966.13739	
912	9.110	-763.42188	6.20438	-639.69336	806.54712	7.96305	-644.79706	-671.57587	9.02778	495.41061	770.59332	8.58462	505.20224	22.41443	1304.69153	-966.75983	
913	9.120	-762.69098	6.10044	-639.76251	807.24634	7.50089	-644.70508	-670.84558	9.24827	495.25641	771.65753	8.92915	505.12009	23.44234	1304.16052	-967.48694	
914	9.130	-762.19543	5.78380	-639.83551	807.94098	7.33147	-644.93994	-670.17719	9.55811	495.17841	772.22937	9.10488	504.95917	23.70952	1303.56409	-968.64850	
915	9.140	-761.23920	5.39292	-640.18848	808.70319	6.96435	-645.04358	-669.41815	9.84003	495.12949	772.65454	9.31010	504.75500	24.48249	1302.90515	-969.47217	
916	9.150	-760.55499	5.05227	-640.11218	809.34314	6.59239	-645.18591	-668.70349	10.10714	495.13831	773.43518	9.72878	504.57663	25.34806	1302.45276	-970.41052	
917	9.160	-759.86328	4.87706	-640.15094	810.07123	6.57892	-645.38397	-668.23859	10.41103	495.06995	774.28149	10.08115	504.57748	25.88233	1301.85278	-971.12921	
918	9.170	-759.21576	4.44826	-640.34003	810.48395	6.19839	-645.74152	-667.61218	10.75963	494.93799	774.90546	10.36717	504.24258	26.62990	1301.38245	-972.22797	
919	9.180	-758.66791	4.09801	-640.40869	811.35828	5.50806	-645.66840	-666.85797	10.99754	494.77878	775.50586	10.56028	504.48615	27.00580	1300.75488	-972.78680	
920	9.190	-757.83130	3.55075	-640.76965	812.15546	5.10855	-645.49457	-666.30005	11.14649	494.51059	776.13232	10.95089	504.32202	28.41191	1300.11426	-973.74274	
921	9.200	-757.33551	2.97803	-640.79382	813.02313	4.73785	-645.53510	-665.76208	11.42313	494.37405	776.99377	11.21230	504.29559	28.55837	1299.72925	-974.47382	
922	9.210	-756.87946	2.82906	-640.69189	813.37000	4.59269	-645.78143	-665.22925	11.53722	494.32089	777.35059	11.31125	503.99228	28.84725	1299.37634	-975.45282	
923	9.220	-756.37183	2.84161	-640.68365	813.72693	4.29890	-645.84503	-664.66846	11.63803	494.31866	778.21136	11.67107	504.35852	29.14242	1299.14514	-975.95172	
924	9.230	-755.87274	2.54908	-640.69482	814.14417	4.00204	-645.83301	-663.81219	12.02874	494.32458	778.65540	11.81398	504.25342	30.00953	1298.68823	-976.63916	
925	9.240	-755.24878	2.02539	-640.95007	814.81165	3.58436	-645.77551	-663.43646	12.22456	494.27481	779.24719	12.13636	504.10443	30.89260	1298.14380	-977.04547	
926	9.250	-754.66791	1.37506	-640.97675	815.30853	3.21554	-645.89148	-663.10632	12.46769	494.19757	779.35779	12.18149	503.65823	31.00005	1297.48291	-977.26129	
927	9.260	-754.19385	1.08987	-641.22504	815.70685	2.76937	-646.35706	-662.69751	12.59394	494.10846	780.09222	12.65624	503.64240	31.73156	1296.94104	-977.81677	
